<?xml version="1.0" standalone="no"?>
<!DOCTYPE svg PUBLIC "-//W3C//DTD SVG 20010904//EN"
 "http://www.w3.org/TR/2001/REC-SVG-20010904/DTD/svg10.dtd">
<svg version="1.0" xmlns="http://www.w3.org/2000/svg"
 width="701.000000pt" height="701.000000pt" viewBox="0 0 701.000000 701.000000"
 preserveAspectRatio="xMidYMid meet">
<metadata>
Created by potrace 1.14, written by Peter Selinger 2001-2017
</metadata>
<g transform="translate(0.000000,701.000000) scale(0.100000,-0.100000)"
fill="#000000" stroke="none">
<path d="M3395 6939 c-205 -13 -366 -37 -560 -86 -1041 -260 -1867 -957 -2274
-1919 -120 -285 -200 -586 -237 -894 -22 -181 -25 -613 -6 -775 57 -470 200
-893 429 -1264 160 -259 290 -426 488 -630 269 -276 530 -464 913 -655 289
-144 635 -251 1002 -308 125 -19 185 -22 435 -23 315 0 409 8 647 55 148 30
432 114 576 171 274 109 578 286 802 467 145 118 427 404 534 542 106 137 254
359 325 488 165 298 302 727 356 1112 23 158 31 571 15 742 -35 390 -159 818
-342 1182 -100 199 -265 444 -427 635 -518 610 -1257 1023 -2031 1135 -94 14
-445 38 -495 35 -11 -1 -78 -6 -150 -10z m261 -500 c16 -17 20 -40 22 -125 l4
-104 106 1 c99 1 107 0 125 -22 11 -14 17 -34 15 -53 -5 -47 -51 -66 -159 -66
l-86 0 -6 -97 c-3 -54 -9 -106 -12 -116 -17 -41 -92 -41 -111 0 -4 10 -11 63
-14 118 l-5 100 -106 5 c-119 6 -139 15 -139 65 0 50 20 59 139 65 l106 5 5
102 c4 78 9 107 22 123 23 26 70 26 94 -1z m-839 -136 c44 -54 21 -139 -44
-160 -62 -20 -110 0 -133 58 -16 38 -6 75 31 112 27 26 35 29 77 24 35 -4 52
-12 69 -34z m1684 -104 c18 -34 -3 -69 -40 -69 -38 0 -55 27 -41 64 13 34 64
37 81 5z m653 -91 c12 -16 16 -47 16 -115 l0 -93 74 0 c40 0 87 -5 105 -11 49
-17 66 -65 37 -105 -12 -16 -30 -20 -113 -24 l-98 -5 -3 -107 -3 -108 -30 -15
c-33 -18 -58 -14 -82 13 -12 13 -16 42 -18 120 l-1 102 -93 0 c-78 0 -96 3
-119 21 -31 24 -34 57 -7 90 17 22 28 24 120 27 l101 4 0 96 c0 75 4 99 17
114 23 26 78 24 97 -4z m-3084 -88 c0 -39 1 -40 35 -40 28 0 36 -4 41 -24 8
-35 -2 -46 -42 -46 -32 0 -34 -2 -34 -34 0 -40 -11 -50 -46 -42 -20 5 -24 13
-24 41 0 33 -1 34 -42 37 -40 3 -43 5 -43 33 0 28 3 30 43 33 40 3 42 4 42 37
0 34 9 43 48 44 19 1 22 -4 22 -39z m-530 -93 c0 -2 -12 -14 -27 -28 l-28 -24
24 28 c23 25 31 32 31 24z m-180 -181 c0 -2 -8 -10 -17 -17 -16 -13 -17 -12
-4 4 13 16 21 21 21 13z m3195 -36 c3 -6 -1 -7 -9 -4 -18 7 -21 14 -7 14 6 0
13 -4 16 -10z m-1061 -126 c21 -21 20 -37 -4 -59 -40 -36 -96 7 -70 55 13 24
52 26 74 4z m417 -14 c22 -12 26 -59 7 -78 -7 -7 -21 -12 -33 -12 -43 0 -60
47 -28 82 19 21 27 22 54 8z m-2435 -44 c16 -12 20 -30 24 -113 l5 -98 91 -5
c93 -5 118 -15 129 -51 7 -20 -10 -58 -34 -76 -10 -7 -49 -12 -98 -13 l-83 0
0 -90 c0 -83 -2 -93 -25 -115 -30 -31 -68 -32 -95 -3 -17 19 -20 35 -20 115
l0 93 -84 0 c-97 0 -136 20 -136 70 0 50 39 70 137 70 l84 0 -3 91 c-3 88 -2
91 25 115 32 27 55 30 83 10z m3015 -95 c64 -65 20 -171 -71 -171 -58 0 -100
42 -100 98 0 92 106 137 171 73z m1333 -25 c71 -30 90 -114 37 -167 -24 -24
-38 -29 -76 -29 -38 0 -52 5 -76 29 -49 50 -31 138 34 166 40 18 41 18 81 1z
m-2322 -190 c58 -14 137 -38 175 -53 164 -69 365 -211 493 -349 l55 -59 -83
-3 -83 -3 -65 56 c-384 325 -833 391 -1234 179 -292 -154 -595 -487 -829 -909
-120 -218 -211 -492 -230 -698 -8 -86 -13 -105 -32 -119 -29 -24 -62 -23 -85
3 -16 17 -18 34 -16 97 3 93 18 205 39 287 21 87 109 317 155 410 166 332 426
675 658 869 334 281 699 379 1082 292z m-1171 -6 c12 -7 19 -21 19 -40 0 -23
-5 -31 -25 -36 -15 -4 -32 -1 -40 6 -20 17 -19 57 3 69 21 13 20 13 43 1z
m2610 -135 c177 -63 188 -308 17 -380 -92 -38 -214 4 -260 90 -57 105 5 254
121 289 60 19 70 19 122 1z m1110 -338 c-5 -12 -18 -24 -31 -25 -41 -6 -57 52
-17 67 31 12 59 -13 48 -42z m-4842 -15 c14 -10 14 -11 -3 -5 -12 4 -17 2 -13
-4 8 -13 -24 -39 -45 -35 -20 4 -34 44 -23 62 14 22 49 29 59 11 5 -9 17 -22
25 -29z m689 -21 c4 -28 -14 -51 -42 -51 -47 0 -63 57 -24 84 19 13 25 14 43
2 11 -7 21 -23 23 -35z m-527 6 c-10 -9 -11 -8 -5 6 3 10 9 15 12 12 3 -3 0
-11 -7 -18z m3990 -58 c16 -30 -3 -69 -34 -69 -29 0 -47 17 -47 45 0 45 60 63
81 24z m-4038 -29 c3 -11 2 -18 -3 -15 -4 3 -10 14 -13 25 -3 11 -2 18 3 15 4
-3 10 -14 13 -25z m-192 -27 c13 -16 12 -17 -3 -4 -17 13 -22 21 -14 21 2 0
10 -8 17 -17z m-150 -24 c9 -5 20 -5 24 -1 3 4 5 3 4 -3 -2 -5 5 -24 14 -42 9
-18 17 -38 17 -45 -1 -15 -39 -98 -40 -85 0 5 -7 1 -16 -7 -43 -44 -152 0
-168 67 -24 94 74 163 165 116z m3410 1 c174 -53 269 -176 276 -355 4 -103 -3
-123 -37 -105 -34 18 -203 24 -305 11 -178 -23 -555 -134 -555 -163 0 -5 -4
-7 -9 -3 -11 6 -62 -15 -73 -30 -4 -5 -8 -7 -8 -2 0 4 -50 -18 -111 -49 -61
-31 -107 -59 -102 -63 6 -3 13 -13 16 -21 4 -9 6 -4 4 10 -2 23 2 25 38 27 22
2 50 4 62 5 12 2 22 -1 23 -7 0 -5 -11 -10 -25 -10 -14 -1 -31 -7 -37 -14 -11
-10 -9 -11 7 -6 11 4 -4 -7 -34 -24 -29 -17 -58 -28 -64 -24 -5 3 -7 2 -4 -3
3 -5 -8 -17 -24 -26 -16 -10 -29 -13 -29 -8 0 6 -4 10 -10 10 -5 0 -7 -6 -4
-14 8 -21 -37 -44 -83 -42 -40 2 -51 -9 -28 -26 6 -5 5 -8 -3 -8 -7 0 -11 -4
-8 -9 4 -5 -3 -7 -15 -4 -16 4 -17 8 -7 14 15 10 7 12 -16 3 -8 -3 -12 -12 -9
-20 3 -9 -2 -14 -17 -14 -11 0 -19 -4 -15 -9 3 -5 0 -13 -6 -17 -8 -4 -9 -3
-5 4 4 7 0 12 -11 13 -14 0 -15 2 -3 6 8 3 28 18 44 34 15 16 31 27 35 24 4
-2 8 2 8 10 0 26 -142 -86 -291 -229 -38 -37 -66 -69 -63 -73 4 -3 16 2 27 12
11 10 20 14 20 9 0 -12 -39 -36 -49 -30 -13 9 -84 -71 -76 -85 5 -7 4 -10 -3
-5 -12 7 -70 -60 -99 -116 -11 -21 -23 -35 -27 -31 -3 3 -6 2 -7 -3 -2 -27 -9
-48 -17 -53 -14 -9 -63 -91 -55 -91 5 0 3 -4 -3 -8 -25 -16 -105 -202 -104
-241 1 -9 11 15 24 53 13 38 29 72 35 76 11 6 42 58 77 127 9 18 21 31 27 30
7 -1 11 8 10 20 -1 11 4 27 12 33 12 10 13 16 4 26 -8 10 -8 14 -1 14 6 0 16
-8 21 -17 6 -10 11 -13 11 -6 0 6 -5 15 -10 18 -13 8 26 65 45 65 29 0 24 -33
-11 -82 -28 -38 -39 -46 -46 -36 -7 10 -8 8 -4 -5 3 -9 -3 -32 -14 -50 -119
-197 -195 -451 -169 -568 5 -23 7 -44 5 -47 -8 -7 -65 18 -126 56 -204 127
-303 350 -256 580 114 563 690 1143 1418 1428 115 45 333 109 433 128 44 8 89
17 100 19 11 3 70 5 131 6 86 1 127 -4 175 -19z m1814 -72 c14 -16 25 -35 25
-41 0 -35 -23 -87 -45 -101 -48 -31 -135 -10 -151 36 -13 39 -13 51 0 82 28
67 124 80 171 24z m-381 -141 c4 4 4 -1 0 -10 -7 -20 -7 -20 -23 13 -11 22
-10 23 2 8 8 -10 17 -15 21 -11z m-488 -31 c42 -42 45 -82 8 -125 -22 -26 -33
-31 -70 -31 -58 0 -94 32 -94 85 0 46 13 71 48 89 43 24 71 19 108 -18z
m-4281 -186 c4 -6 10 -8 14 -6 4 3 5 -11 3 -30 -4 -30 -8 -34 -33 -34 -33 0
-44 18 -35 55 7 26 39 35 51 15z m3538 -77 c-7 -2 -21 -2 -30 0 -10 3 -4 5 12
5 17 0 24 -2 18 -5z m-638 -64 c11 -16 1 -19 -13 -3 -7 8 -8 14 -3 14 5 0 13
-5 16 -11z m1075 -49 c27 -27 26 -75 -2 -94 -32 -22 -55 -20 -83 9 -30 29 -31
45 -4 79 25 31 61 34 89 6z m-1294 -15 c-11 -8 -25 -15 -30 -15 -6 1 0 7 14
15 32 19 40 18 16 0z m-101 -45 c-3 -5 3 -10 15 -10 12 0 18 4 15 10 -3 6 1 7
10 3 12 -4 13 -8 5 -13 -9 -6 -9 -9 1 -12 9 -3 8 -6 -5 -11 -10 -4 -15 -3 -11
3 3 6 -3 10 -14 10 -21 0 -35 13 -24 24 10 9 15 7 8 -4z m15 -36 c0 -2 -12 -4
-27 -3 -16 1 -41 -3 -56 -10 -42 -17 -56 -13 -22 6 17 10 36 16 44 14 7 -1 10
2 7 8 -5 7 3 7 24 0 16 -6 30 -13 30 -15z m77 20 c-3 -3 -12 -4 -19 -1 -8 3
-5 6 6 6 11 1 17 -2 13 -5z m2593 -65 c0 -33 -29 -43 -60 -22 -27 19 -23 54
10 70 21 11 27 10 38 -4 6 -9 12 -29 12 -44z m-5382 22 c36 -39 36 -87 0 -123
-38 -38 -71 -44 -110 -21 -42 24 -56 63 -40 105 9 25 9 34 -1 41 -8 6 -6 7 6
3 11 -3 20 0 23 9 4 10 21 15 51 15 37 0 50 -5 71 -29z m3396 -68 c81 -116
376 -554 376 -559 0 -2 -79 -4 -175 -4 -96 0 -175 -3 -175 -7 0 -3 6 -14 14
-22 8 -9 109 -158 226 -331 l211 -315 -171 -3 c-93 -1 -170 -4 -170 -6 0 -2
31 -50 70 -107 38 -56 68 -104 66 -106 -2 -2 -237 -3 -524 -3 -326 0 -530 -3
-546 -10 -49 -18 -106 -99 -106 -151 0 -11 -20 -46 -45 -80 -25 -34 -42 -66
-38 -72 3 -5 2 -7 -4 -4 -11 7 -316 -445 -316 -468 0 -8 -3 -13 -5 -10 -5 5
-52 -58 -52 -70 0 -3 5 -3 12 1 7 4 8 3 4 -5 -4 -6 -11 -9 -16 -6 -6 4 -90
-114 -90 -127 0 -2 118 -3 263 -2 144 0 685 -2 1202 -5 l939 -6 78 -109 c43
-60 78 -112 78 -115 0 -3 -679 -5 -1509 -3 l-1508 2 373 562 c206 309 374 566
374 571 0 5 -62 6 -144 2 -80 -4 -146 -4 -149 1 -4 8 420 652 481 728 12 16
22 33 22 37 0 5 -70 9 -155 9 -85 0 -155 3 -155 6 0 3 26 43 59 87 32 45 85
123 118 172 33 50 85 127 117 172 l57 82 138 70 c76 39 164 82 196 95 l56 25
-19 -32 c-11 -17 -42 -70 -69 -117 -28 -47 -59 -99 -69 -117 -11 -17 -43 -70
-71 -116 -29 -47 -53 -88 -53 -91 0 -3 108 -6 240 -6 l241 0 -23 31 c-28 37
-30 95 -4 133 28 44 75 58 181 54 60 -2 91 1 87 7 -3 6 -32 49 -64 97 -32 48
-58 92 -58 98 0 6 -18 37 -40 69 -50 75 -51 83 -15 92 17 4 64 16 105 27 41
12 82 21 91 21 9 1 37 -29 63 -66z m1117 -72 c58 -58 27 -151 -51 -151 -69 0
-110 54 -89 117 21 63 93 81 140 34z m897 -59 c3 -25 9 -33 30 -38 48 -10 52
-13 52 -38 0 -25 -34 -42 -64 -30 -11 4 -15 -3 -18 -33 -3 -33 -6 -38 -28 -38
-21 0 -26 6 -30 35 -4 30 -9 35 -29 32 -29 -3 -51 14 -51 40 0 20 17 30 53 32
17 1 22 8 23 31 2 45 2 46 32 42 22 -3 28 -9 30 -35z m-3196 -59 c-6 -2 -10
-9 -7 -14 4 -5 -1 -6 -10 -3 -11 5 -14 2 -9 -10 4 -10 1 -16 -7 -16 -11 0 -11
-3 1 -10 11 -7 11 -10 2 -10 -7 0 -10 -5 -6 -12 4 -7 3 -8 -4 -4 -7 4 -12 2
-12 -5 0 -16 -30 -49 -43 -49 -6 0 0 11 13 25 13 14 20 28 17 32 -4 3 -7 1 -7
-6 0 -7 -4 -10 -9 -7 -5 3 -11 -4 -14 -15 -4 -14 -11 -20 -20 -16 -15 6 -37
-10 -37 -27 0 -5 6 -2 13 7 8 11 17 14 25 8 11 -7 9 -13 -9 -29 -12 -12 -27
-19 -32 -15 -6 3 -7 1 -3 -6 7 -11 -140 -171 -156 -171 -5 0 -8 7 -8 16 0 8 5
12 10 9 14 -9 13 8 -2 23 -7 7 -10 12 -7 13 2 0 11 2 20 4 12 2 15 -3 12 -19
-2 -13 1 -10 10 9 10 21 11 34 4 43 -7 9 -7 12 0 10 20 -6 75 43 70 62 -3 13
0 17 9 13 8 -3 14 0 14 6 0 13 51 60 100 93 19 13 35 30 35 37 0 14 33 41 49
40 6 0 5 -3 -2 -6z m1824 -199 c4 -17 1 -31 -9 -41 -23 -23 -67 -9 -67 20 0
50 64 68 76 21z m1393 -53 c16 -13 25 -31 28 -64 5 -41 2 -49 -25 -77 -60 -60
-162 -26 -162 54 0 52 18 83 58 99 40 16 68 13 101 -12z m-649 -25 c28 -35
-11 -93 -47 -70 -36 22 -23 84 17 84 10 0 23 -7 30 -14z m-2906 -112 c3 -7 -2
-18 -10 -24 -10 -9 -14 -9 -14 -1 0 6 5 11 11 11 5 0 7 5 4 10 -5 8 -11 8 -20
0 -9 -7 -15 -7 -23 2 -8 10 -3 13 18 14 16 1 31 -5 34 -12z m2516 -71 c62 -20
141 -88 173 -147 16 -31 22 -59 22 -116 0 -66 -4 -82 -31 -130 -60 -106 -174
-163 -287 -142 -81 15 -141 53 -182 115 -82 125 -64 262 47 362 78 70 162 89
258 58z m-4357 -74 c36 -39 36 -79 -2 -121 -24 -27 -36 -33 -71 -33 -34 0 -47
6 -66 28 -42 48 -25 129 31 153 40 17 74 8 108 -27z m1697 -20 c0 -6 -4 -7
-10 -4 -5 3 -10 11 -10 16 0 6 5 7 10 4 6 -3 10 -11 10 -16z m3506 -282 c55
-47 23 -120 -50 -115 -34 2 -43 8 -54 31 -17 35 -2 79 31 95 33 16 43 14 73
-11z m-3264 -84 c35 -31 13 -78 -34 -71 -30 4 -38 56 -12 75 23 16 24 16 46
-4z m-1858 -56 c8 -23 6 -31 -12 -50 -21 -20 -24 -21 -50 -7 -32 19 -40 51
-16 74 25 26 67 17 78 -17z m5020 -273 c9 -23 8 -31 -9 -47 -31 -32 -83 14
-55 48 16 20 56 19 64 -1z m-884 -84 c26 -26 25 -52 0 -75 -48 -43 -108 28
-64 76 22 24 39 24 64 -1z m-3976 -33 c23 -17 18 -55 -11 -74 -19 -13 -24 -12
-42 6 -26 26 -26 36 -1 61 24 24 30 24 54 7z m829 -50 c107 -48 196 -154 215
-259 14 -71 1 -218 -18 -218 -6 0 -10 7 -10 15 0 9 -6 12 -17 8 -10 -4 -12 -8
-6 -10 9 -3 9 -11 0 -30 -10 -22 -12 -23 -18 -6 -7 16 -8 16 -8 1 -1 -9 3 -19
9 -23 5 -3 7 -12 4 -20 -5 -12 -9 -12 -30 2 -15 9 -24 11 -24 4 0 -6 8 -11 18
-12 12 0 11 -3 -6 -10 -13 -5 -29 -6 -35 -2 -7 3 -8 2 -4 -3 5 -5 19 -9 30 -9
16 0 21 -5 19 -19 -3 -18 -2 -18 13 -6 11 9 13 16 6 18 -12 4 -15 23 -3 21 16
-3 32 1 31 9 -1 4 -1 17 0 28 1 25 31 42 31 18 0 -9 -5 -12 -11 -8 -7 4 -9 0
-5 -14 5 -14 0 -25 -16 -36 -12 -9 -18 -16 -13 -16 4 0 -2 -11 -15 -25 -12
-13 -27 -22 -31 -19 -5 3 -9 1 -9 -5 0 -15 -86 -71 -108 -71 -11 0 -22 -6 -24
-12 -3 -9 -35 -13 -114 -13 -103 0 -112 2 -170 32 -75 39 -146 117 -176 193
-17 42 -22 77 -22 150 -1 83 3 102 26 152 15 32 39 73 53 92 35 46 124 106
182 122 72 21 185 12 256 -19z m2757 -143 c39 -58 70 -109 70 -113 0 -4 -254
-11 -565 -14 -480 -6 -571 -5 -607 8 -32 11 -46 11 -58 3 -12 -10 -13 -9 -4 1
9 10 8 23 -7 55 -22 50 -13 99 24 134 26 24 50 25 725 30 l352 2 70 -106z
m978 94 c7 -7 12 -29 12 -50 l0 -38 44 0 c49 0 69 -17 64 -52 -3 -20 -10 -24
-53 -28 -49 -5 -50 -6 -53 -40 -7 -81 -92 -76 -92 5 0 33 -1 34 -46 37 -31 2
-51 9 -58 21 -19 29 4 52 58 55 44 3 46 4 46 35 0 36 8 51 30 60 24 9 35 8 48
-5z m-3028 -138 c15 -28 -4 -60 -35 -60 -14 0 -29 8 -35 20 -15 28 4 60 35 60
14 0 29 -8 35 -20z m2246 -275 c10 -3 154 -208 154 -219 0 -3 -309 -6 -686 -6
-765 0 -726 -4 -760 69 -14 30 -15 42 -5 76 7 22 13 46 13 53 1 6 3 10 6 7 3
-2 14 1 26 7 11 7 37 15 56 18 34 6 1174 2 1196 -5z m559 -71 c0 -23 -5 -30
-23 -32 -44 -6 -67 32 -37 62 24 24 60 6 60 -30z m-1795 -879 l0 -155 -125 0
-125 0 0 155 0 155 125 0 125 0 0 -155z"/>
<path d="M3409 3785 c-19 -13 -44 -29 -56 -34 -32 -15 -28 -23 4 -10 15 6 36
19 46 30 18 19 44 21 40 2 -1 -5 7 -9 18 -9 19 0 20 1 2 14 -10 7 -17 18 -15
23 3 13 -2 12 -39 -16z"/>
<path d="M3508 3783 c7 -3 16 -2 19 1 4 3 -2 6 -13 5 -11 0 -14 -3 -6 -6z"/>
<path d="M3410 3750 c-9 -6 -10 -10 -3 -10 6 0 15 5 18 10 8 12 4 12 -15 0z"/>
<path d="M3285 3705 c-30 -25 -30 -25 -3 -14 15 7 29 18 32 25 7 18 6 18 -29
-11z"/>
<path d="M3351 3703 c-1 -12 -7 -24 -13 -26 -10 -4 -10 -6 0 -6 15 -1 26 23
19 41 -3 7 -6 3 -6 -9z"/>
<path d="M3300 3679 c0 -5 5 -7 10 -4 6 3 10 8 10 11 0 2 -4 4 -10 4 -5 0 -10
-5 -10 -11z"/>
<path d="M2730 3131 c0 -16 28 -20 34 -5 4 9 -1 14 -14 14 -11 0 -20 -4 -20
-9z"/>
<path d="M2491 2684 c0 -11 3 -14 6 -6 3 7 2 16 -1 19 -3 4 -6 -2 -5 -13z"/>
<path d="M3668 2953 c-8 -10 -38 -56 -68 -103 -60 -96 -154 -241 -183 -282
l-18 -28 349 0 350 0 -34 34 c-25 25 -34 43 -34 67 0 31 36 99 53 99 5 0 6 4
3 8 -3 5 54 10 127 11 72 1 134 4 136 7 2 2 -26 49 -62 104 l-67 100 -269 0
c-243 0 -269 -2 -283 -17z"/>
<path d="M2900 3326 c0 -2 7 -7 16 -10 8 -3 12 -2 9 4 -6 10 -25 14 -25 6z"/>
<path d="M2217 1729 c7 -7 15 -10 18 -7 3 3 -2 9 -12 12 -14 6 -15 5 -6 -5z"/>
<path d="M2066 1571 c-9 -10 -30 -21 -47 -25 -16 -3 -29 -10 -29 -16 0 -6 8
-6 23 -1 23 9 31 11 46 11 5 0 13 10 16 21 6 17 9 19 16 8 6 -9 9 -10 9 -2 0
21 -17 23 -34 4z"/>
<path d="M1890 1526 c0 -2 7 -9 15 -16 9 -7 15 -8 15 -2 0 5 -7 12 -15 16 -8
3 -15 4 -15 2z"/>
<path d="M1935 1510 c-3 -5 -1 -10 4 -10 6 0 11 5 11 10 0 6 -2 10 -4 10 -3 0
-8 -4 -11 -10z"/>
</g>
</svg>
