<?xml version="1.0" standalone="no"?>
<!DOCTYPE svg PUBLIC "-//W3C//DTD SVG 20010904//EN"
 "http://www.w3.org/TR/2001/REC-SVG-20010904/DTD/svg10.dtd">
<svg version="1.0" xmlns="http://www.w3.org/2000/svg"
 width="701.000000pt" height="701.000000pt" viewBox="0 0 701.000000 701.000000"
 preserveAspectRatio="xMidYMid meet">
<metadata>
Created by potrace 1.14, written by Peter Selinger 2001-2017
</metadata>
<g transform="translate(0.000000,701.000000) scale(0.100000,-0.100000)"
fill="#000000" stroke="none">
<path d="M3475 6944 c-274 -16 -407 -34 -630 -89 -800 -194 -1480 -654 -1952
-1320 -302 -426 -501 -947 -569 -1490 -22 -176 -25 -617 -6 -780 56 -469 200
-894 429 -1264 160 -259 290 -426 488 -630 270 -278 527 -462 912 -655 289
-144 637 -251 998 -306 180 -28 528 -37 728 -21 631 54 1261 303 1737 689 120
98 396 371 486 482 355 437 568 872 680 1388 50 232 65 364 71 628 8 358 -14
573 -91 874 -155 608 -453 1122 -906 1563 -472 461 -1071 770 -1715 886 -174
31 -503 53 -660 45z m184 -510 c18 -23 21 -41 21 -125 l0 -99 105 0 c118 0
145 -13 145 -70 0 -50 -45 -70 -156 -70 l-91 0 -6 -97 c-6 -113 -12 -131 -42
-143 -66 -25 -95 22 -95 155 l0 95 -103 0 c-121 0 -147 11 -147 64 0 51 20 60
139 66 l106 5 5 102 c4 78 9 107 22 123 26 29 72 26 97 -6z m-842 -131 c34
-41 31 -96 -6 -134 -25 -24 -38 -29 -80 -29 -42 0 -53 4 -70 27 -42 53 -35
112 18 154 38 30 107 21 138 -18z m1684 -104 c18 -34 -3 -69 -40 -69 -45 0
-66 44 -35 74 22 23 61 20 75 -5z m651 -86 c15 -13 18 -32 18 -115 l0 -98 75
0 c119 0 167 -31 151 -96 -9 -34 -42 -44 -142 -44 l-84 0 0 -109 c0 -105 -1
-109 -25 -125 -33 -22 -49 -20 -82 8 -28 24 -28 25 -25 125 l3 101 -94 0 c-80
0 -98 3 -121 21 -31 24 -33 54 -6 89 17 23 26 25 119 28 l101 4 0 96 c0 75 4
99 17 114 20 22 70 23 95 1z m-3082 -93 c0 -39 1 -40 34 -40 36 0 51 -18 41
-51 -5 -14 -16 -19 -41 -19 -32 0 -34 -2 -34 -34 0 -40 -11 -50 -46 -42 -20 5
-24 13 -24 41 0 33 -1 34 -42 37 -40 3 -43 5 -43 33 0 28 3 30 43 33 40 3 42
5 42 36 0 40 5 46 42 46 26 0 28 -3 28 -40z m1432 -445 c10 -22 9 -29 -9 -47
-41 -40 -100 2 -73 52 16 30 67 27 82 -5z m409 -5 c22 -12 26 -59 7 -78 -7 -7
-21 -12 -33 -12 -43 0 -60 47 -28 82 19 21 27 22 54 8z m-2432 -47 c18 -16 21
-31 23 -113 l3 -95 75 -3 c99 -3 117 -8 136 -37 14 -21 14 -30 5 -54 -17 -39
-49 -51 -136 -51 l-75 0 0 -90 c0 -83 -2 -93 -25 -115 -30 -31 -68 -32 -95 -3
-17 19 -20 35 -20 115 l0 93 -84 0 c-97 0 -136 20 -136 70 0 50 39 70 137 70
l84 0 -3 91 c-3 88 -2 91 25 115 33 28 57 30 86 7z m3012 -92 c64 -65 20 -171
-71 -171 -92 0 -134 104 -69 169 42 43 98 43 140 2z m1333 -25 c71 -30 90
-114 37 -167 -24 -24 -38 -29 -76 -29 -38 0 -52 5 -76 29 -49 50 -31 138 34
166 40 18 41 18 81 1z m-2323 -190 c59 -13 140 -38 181 -55 159 -66 352 -203
483 -342 l60 -64 -83 -3 -83 -3 -65 56 c-204 173 -413 268 -654 295 -358 42
-703 -120 -1026 -481 -342 -381 -574 -852 -614 -1241 -11 -111 -26 -138 -75
-138 -43 0 -60 34 -57 114 3 93 19 216 38 291 22 87 110 317 156 410 166 332
426 675 658 869 334 281 699 379 1081 292z m-1170 -6 c12 -7 19 -21 19 -40 0
-23 -5 -31 -25 -36 -15 -4 -32 -1 -40 6 -20 17 -19 57 3 69 21 13 20 13 43 1z
m2610 -135 c159 -56 189 -262 52 -358 -94 -66 -241 -32 -295 68 -57 105 5 254
121 289 60 19 70 19 122 1z m1107 -307 c17 -22 -4 -58 -32 -58 -19 0 -27 7
-32 24 -3 14 -3 30 1 35 9 15 50 14 63 -1z m-4834 -47 c11 -7 14 -10 6 -8 -8
2 -24 -6 -34 -18 -23 -27 -54 -22 -62 11 -7 28 1 43 30 54 16 6 23 3 30 -10 4
-10 18 -23 30 -29z m685 -10 c22 -39 -44 -82 -77 -49 -33 33 10 99 49 77 10
-5 23 -18 28 -28z m-528 -4 c-10 -9 -11 -8 -5 6 3 10 9 15 12 12 3 -3 0 -11
-7 -18z m3989 -57 c15 -29 3 -59 -26 -66 -30 -8 -54 11 -54 40 0 46 59 64 80
26z m654 -26 c3 -8 2 -12 -4 -9 -6 3 -10 10 -10 16 0 14 7 11 14 -7z m-5027
-60 c84 -53 52 -180 -47 -191 -92 -10 -155 73 -117 153 29 59 103 77 164 38z
m3404 6 c119 -36 203 -109 251 -216 23 -51 37 -217 21 -241 -6 -8 -22 -8 -63
4 -115 31 -393 -2 -615 -72 -139 -44 -294 -108 -288 -118 3 -6 1 -7 -5 -3 -10
6 -212 -88 -212 -99 0 -3 14 2 30 10 17 9 34 13 39 10 5 -2 11 2 15 10 3 8 10
15 17 15 6 0 8 -7 5 -16 -3 -8 -2 -13 2 -11 4 3 13 -1 19 -8 10 -11 7 -17 -18
-29 -17 -9 -36 -13 -42 -9 -5 3 -8 2 -5 -3 3 -5 -41 -37 -98 -70 -57 -34 -101
-58 -98 -53 3 5 1 9 -5 9 -5 0 -13 -4 -16 -10 -3 -5 -19 -10 -36 -10 -16 0
-29 -4 -29 -10 0 -5 6 -10 13 -10 8 0 7 -4 -3 -10 -8 -5 -19 -10 -25 -10 -5 0
-3 5 5 10 9 6 10 10 3 10 -6 0 -18 -8 -25 -18 -16 -23 -55 -34 -55 -16 0 7 4
12 8 11 4 -1 14 6 21 15 7 9 20 18 28 20 8 2 23 13 33 26 10 12 24 22 32 22 7
0 16 7 19 16 5 12 -1 10 -21 -5 -16 -12 -51 -37 -79 -55 -137 -90 -467 -417
-450 -444 3 -6 -2 -16 -12 -23 -15 -13 -16 -12 -3 4 7 9 11 17 8 17 -10 0 -86
-118 -80 -124 4 -3 0 -6 -7 -6 -7 0 -11 -3 -7 -6 3 -3 -3 -16 -14 -27 -30 -32
-115 -204 -138 -281 -31 -100 -24 -105 9 -7 16 46 33 87 38 90 6 3 28 40 51
81 22 42 49 85 60 96 10 12 21 30 23 40 2 10 10 18 16 16 7 -1 12 3 12 9 0 6
-8 8 -19 4 -12 -4 -6 7 18 33 33 35 36 37 42 18 5 -21 5 -21 17 1 7 12 12 28
12 35 0 8 9 14 19 14 23 0 16 -16 -23 -58 -14 -15 -26 -30 -26 -33 0 -3 -20
-32 -45 -66 -139 -188 -230 -482 -200 -641 l7 -38 -38 16 c-97 41 -203 125
-269 215 -77 103 -111 286 -80 425 110 496 548 989 1160 1304 199 103 494 207
690 244 44 8 89 17 100 19 11 3 70 5 131 6 86 1 127 -4 175 -19z m-3046 -8
c-3 -3 -11 0 -18 7 -9 10 -8 11 6 5 10 -3 15 -9 12 -12z m4850 -33 c4 3 5 2 3
-4 -4 -13 27 -57 35 -49 3 3 -1 -18 -8 -47 -17 -63 -45 -88 -97 -89 -43 0 -96
40 -103 78 -4 24 22 102 33 100 4 -1 14 1 22 5 33 12 46 13 77 7 18 -4 35 -5
38 -1z m-859 -203 c42 -42 45 -82 8 -125 -22 -26 -33 -31 -70 -31 -58 0 -94
32 -94 85 0 46 13 71 48 89 43 24 71 19 108 -18z m487 17 c-3 -7 -6 -13 -8
-13 -2 0 -5 6 -8 13 -3 8 1 14 8 14 7 0 11 -6 8 -14z m-4767 -204 c6 -5 13 -7
15 -4 3 2 3 -11 1 -30 -4 -31 -8 -35 -32 -35 -28 0 -55 21 -43 34 4 4 1 11 -7
16 -13 8 -12 10 2 10 11 0 15 5 12 14 -4 11 0 13 18 9 13 -3 28 -10 34 -14z
m3532 -76 c-10 -2 -26 -2 -35 0 -10 3 -2 5 17 5 19 0 27 -2 18 -5z m-261 -9
c-3 -3 -12 -4 -19 -1 -8 3 -5 6 6 6 11 1 17 -2 13 -5z m-302 -64 c-3 -5 -12
-10 -18 -10 -7 0 -6 4 3 10 19 12 23 12 15 0z m1005 -40 c29 -29 26 -76 -5
-96 -31 -21 -69 -12 -91 21 -40 61 44 127 96 75z m-1287 -15 c-3 -9 -8 -14
-10 -11 -3 3 -2 9 2 15 9 16 15 13 8 -4z m101 -1 c3 -8 2 -12 -4 -9 -6 3 -10
10 -10 16 0 14 7 11 14 -7z m-38 -23 c-6 -9 -46 -22 -46 -15 0 3 10 9 23 14
29 11 29 11 23 1z m-176 -47 c0 -8 -4 -14 -9 -14 -6 0 -9 9 -8 19 1 22 17 18
17 -5z m100 12 c0 -2 -7 -7 -16 -10 -8 -3 -12 -2 -9 4 6 10 25 14 25 6z
m-2795 -41 c14 -13 26 -34 26 -47 1 -13 2 -30 3 -38 1 -20 -47 -68 -78 -76
-34 -8 -94 29 -103 64 -3 14 -1 39 5 56 9 23 9 32 -1 39 -8 6 -6 7 6 3 11 -3
20 0 23 9 10 26 90 20 119 -10z m5379 9 c20 -53 -11 -87 -53 -57 -37 25 -21
73 25 73 12 0 25 -7 28 -16z m-1980 -81 c79 -113 376 -554 376 -558 0 -3 -78
-6 -174 -7 l-175 -3 225 -335 c123 -184 224 -337 224 -340 0 -3 -76 -4 -170
-2 -93 2 -170 1 -170 -1 0 -3 32 -51 70 -108 l71 -104 -540 -5 c-521 -5 -540
-6 -562 -25 -46 -39 -79 -96 -79 -136 0 -10 -23 -50 -51 -88 -30 -42 -48 -75
-43 -82 4 -7 3 -9 -3 -6 -12 7 -107 -127 -278 -393 -59 -91 -118 -182 -132
-202 -14 -21 -22 -42 -17 -49 4 -7 3 -10 -3 -6 -6 4 -13 1 -16 -6 -3 -9 243
-13 1192 -16 658 -2 1199 -5 1203 -8 7 -4 134 -181 152 -210 6 -10 -297 -13
-1502 -13 l-1510 0 374 562 c206 309 374 566 374 571 0 5 -60 6 -144 2 -79 -4
-146 -4 -149 1 -4 8 421 652 481 728 12 16 22 33 22 37 0 5 -70 9 -155 9 -85
0 -155 3 -155 6 0 3 26 43 59 87 32 45 85 123 118 172 32 50 85 127 116 172
l57 81 138 70 c76 39 164 82 196 96 l57 25 -19 -32 c-11 -17 -42 -70 -69 -117
-28 -47 -59 -99 -69 -117 -11 -17 -43 -70 -71 -116 -29 -47 -53 -88 -53 -91 0
-3 108 -6 240 -6 l241 0 -23 31 c-28 37 -30 95 -4 133 27 41 73 56 176 56 49
0 90 2 90 5 0 3 -27 46 -60 95 -33 49 -60 94 -60 99 0 5 -18 38 -40 73 -22 35
-41 67 -41 73 0 9 186 63 222 64 9 1 37 -29 63 -66z m-3329 9 c-3 -3 -11 0
-18 7 -9 10 -8 11 6 5 10 -3 15 -9 12 -12z m4444 -78 c25 -21 31 -33 31 -67 0
-54 -30 -87 -80 -87 -69 0 -110 54 -89 117 11 35 48 62 86 63 12 0 35 -12 52
-26z m901 -65 c4 -30 9 -35 40 -39 29 -4 36 -10 38 -31 2 -21 -2 -28 -22 -33
-13 -3 -31 -3 -40 0 -11 4 -15 -3 -18 -33 -3 -33 -6 -38 -28 -38 -21 0 -26 6
-30 35 -4 31 -8 35 -31 32 -36 -3 -64 28 -46 52 7 9 26 18 42 19 25 2 30 7 31
32 2 45 2 46 32 42 22 -3 28 -10 32 -38z m-3205 -59 c-3 -5 -1 -10 6 -10 7 0
10 -3 6 -6 -9 -9 -28 6 -22 17 4 5 8 9 11 9 3 0 2 -4 -1 -10z m-16 -52 c-16
-32 -251 -268 -260 -262 -4 2 -10 0 -14 -6 -3 -5 0 -10 7 -10 9 0 9 -3 -2 -10
-8 -5 -18 -10 -22 -10 -13 0 -1 30 17 44 12 9 16 19 11 32 -4 10 -4 15 0 12
14 -14 46 13 41 34 -3 11 -3 17 0 14 7 -7 39 35 35 47 -1 4 1 6 6 5 14 -3 42
14 36 23 -3 5 2 9 10 9 9 0 16 6 16 13 0 8 4 7 10 -3 8 -12 10 -11 10 7 0 14
13 29 38 44 20 13 40 23 44 23 3 1 10 4 14 9 14 13 15 7 3 -15z m1847 -144 c4
-17 1 -31 -9 -41 -23 -23 -67 -9 -67 20 0 50 64 68 76 21z m1393 -53 c16 -13
25 -31 28 -64 5 -41 2 -49 -25 -77 -61 -60 -162 -26 -162 55 0 94 87 140 159
86z m-649 -25 c28 -35 -11 -93 -47 -70 -36 22 -23 84 17 84 10 0 23 -7 30 -14z
m-2890 -30 c0 -3 -4 -8 -10 -11 -5 -3 -10 -1 -10 4 0 6 5 11 10 11 6 0 10 -2
10 -4z m2500 -153 c61 -20 142 -88 171 -145 45 -89 34 -200 -29 -283 -112
-148 -335 -147 -441 2 -89 123 -73 266 41 368 78 70 162 89 258 58z m-4356
-75 c24 -26 27 -37 22 -66 -13 -83 -111 -118 -162 -59 -42 48 -25 129 31 153
40 17 74 8 109 -28z m5207 -308 c23 -23 29 -35 24 -52 -16 -50 -59 -73 -104
-57 -48 18 -47 103 2 127 35 17 47 14 78 -18z m-3269 -77 c35 -31 13 -78 -34
-71 -30 4 -38 56 -12 75 23 16 24 16 46 -4z m-1858 -55 c8 -22 6 -32 -9 -48
-22 -24 -42 -25 -67 -3 -22 20 -23 46 -2 68 25 24 67 15 78 -17z m5020 -274
c9 -23 8 -31 -9 -47 -31 -32 -83 14 -55 48 16 20 56 19 64 -1z m-886 -80 c47
-33 9 -107 -46 -88 -33 12 -42 56 -16 85 21 23 33 24 62 3z m-3974 -37 c23
-17 18 -55 -11 -74 -19 -13 -24 -12 -42 6 -26 26 -26 36 -1 61 24 24 30 24 54
7z m819 -47 c70 -27 163 -109 195 -174 29 -57 41 -128 34 -209 -5 -66 -20
-123 -21 -80 -1 12 -5 25 -11 28 -6 3 -7 -1 -4 -10 4 -10 2 -15 -6 -13 -7 2
-15 -3 -18 -11 -3 -8 0 -11 7 -7 19 12 13 -24 -9 -51 -11 -15 -18 -28 -16 -31
6 -5 37 24 32 29 -2 2 2 10 10 17 23 21 16 -1 -16 -52 -20 -30 -35 -45 -43
-40 -6 4 -9 4 -5 -1 10 -10 -31 -47 -44 -39 -4 3 -7 0 -6 -8 2 -7 -5 -12 -14
-12 -10 1 -16 -2 -13 -6 2 -4 -19 -18 -47 -31 -44 -20 -67 -24 -152 -24 -94 0
-105 2 -162 32 -75 39 -146 117 -176 193 -17 42 -22 77 -22 150 -1 83 3 102
26 152 15 32 39 73 53 92 35 47 124 106 182 122 65 19 175 12 246 -16z m2767
-146 c39 -58 70 -109 70 -113 0 -4 -256 -11 -570 -14 -654 -8 -637 -10 -672
70 -22 51 -14 95 25 131 26 24 52 25 725 30 l352 2 70 -106z m980 87 c5 -11
10 -33 10 -50 0 -30 2 -31 44 -31 49 0 69 -17 64 -52 -3 -20 -10 -24 -53 -28
-49 -5 -50 -6 -53 -40 -7 -82 -92 -76 -92 6 l0 34 -50 0 c-45 0 -50 2 -56 25
-9 37 11 55 62 55 43 0 44 0 44 34 0 58 56 90 80 47z m-3030 -131 c15 -28 -4
-60 -35 -60 -14 0 -29 8 -35 20 -15 28 4 60 35 60 14 0 29 -8 35 -20z m2246
-275 c7 -2 44 -52 84 -112 l73 -108 -683 -3 c-751 -2 -733 -4 -765 59 -19 35
-19 61 -1 104 15 35 41 54 91 65 29 7 1179 2 1201 -5z m559 -71 c0 -23 -5 -30
-23 -32 -44 -6 -67 32 -37 62 24 24 60 6 60 -30z m-1795 -879 l0 -155 -125 0
-125 0 0 155 0 155 125 0 125 0 0 -155z"/>
<path d="M3450 3810 c-9 -6 -10 -10 -3 -10 6 0 15 5 18 10 8 12 4 12 -15 0z"/>
<path d="M3395 3779 c-16 -11 -23 -18 -15 -15 8 3 23 9 33 12 9 4 17 10 17 15
0 12 -1 12 -35 -12z"/>
<path d="M3357 3723 c-11 -10 -8 -45 3 -38 5 3 6 13 3 22 -5 12 -3 14 7 8 9
-5 11 -4 6 3 -8 14 -10 14 -19 5z"/>
<path d="M3668 2953 c-8 -10 -37 -53 -64 -96 -27 -44 -63 -100 -80 -126 -17
-26 -52 -79 -78 -119 l-46 -72 349 0 349 0 -35 35 c-31 31 -35 40 -31 73 3 21
16 53 30 73 l24 36 129 2 c72 1 132 4 134 7 2 2 -26 49 -62 104 l-67 100 -269
0 c-243 0 -269 -2 -283 -17z"/>
<path d="M3067 3479 c7 -7 15 -10 18 -7 3 3 -2 9 -12 12 -14 6 -15 5 -6 -5z"/>
<path d="M2066 1571 c-9 -10 -30 -21 -47 -25 -16 -3 -29 -10 -29 -16 0 -7 6
-8 19 0 11 5 30 10 42 10 12 0 19 3 16 7 -4 3 0 15 10 25 9 10 14 18 11 18 -3
0 -13 -8 -22 -19z"/>
<path d="M1935 1510 c3 -5 8 -10 11 -10 2 0 4 5 4 10 0 6 -5 10 -11 10 -5 0
-7 -4 -4 -10z"/>
</g>
</svg>
